HIERARCHY
ROOT Hips
{
 OFFSET 0.000000 0.000000 0.000000
 CHANNELS 6 Xposition Yposition Zposition Yrotation Xrotation Zrotation
 JOINT Chest
 {
  OFFSET 0.000000 9.585900 0.002600
  CHANNELS 3 Yrotation Xrotation Zrotation
  JOINT Chest2
  {
   OFFSET 0.000000 9.601200 -0.005300
   CHANNELS 3 Yrotation Xrotation Zrotation
   JOINT Chest3
   {
    OFFSET 0.000000 9.561800 0.000000
    CHANNELS 3 Yrotation Xrotation Zrotation
    JOINT Chest4
    {
     OFFSET 0.000000 9.552100 0.000000
     CHANNELS 3 Yrotation Xrotation Zrotation
     JOINT Neck
     {
      OFFSET 0.000000 14.453000 0.000000
      CHANNELS 3 Yrotation Xrotation Zrotation
      JOINT Head
      {
       OFFSET 0.000000 8.936500 -0.011300
       CHANNELS 3 Yrotation Xrotation Zrotation
       End Site
       {
        OFFSET 0.000000 17.073600 -0.006000
       }
      }
     }
     JOINT RightCollar
     {
      OFFSET -2.921100 9.558500 0.000000
      CHANNELS 3 Yrotation Xrotation Zrotation
      JOINT RightShoulder
      {
       OFFSET -13.519700 0.000000 0.000000
       CHANNELS 3 Yrotation Xrotation Zrotation
       JOINT RightElbow
       {
        OFFSET 0.000000 -29.696600 0.000000
        CHANNELS 3 Yrotation Xrotation Zrotation
        JOINT RightWrist
        {
         OFFSET 0.000000 -24.004700 0.000000
         CHANNELS 3 Yrotation Xrotation Zrotation
         End Site
         {
          OFFSET 0.000000 -17.728500 0.000000
         }
        }
       }
      }
     }
     JOINT LeftCollar
     {
      OFFSET 2.921100 9.558500 0.000000
      CHANNELS 3 Yrotation Xrotation Zrotation
      JOINT LeftShoulder
      {
       OFFSET 13.519700 0.000000 0.000000
       CHANNELS 3 Yrotation Xrotation Zrotation
       JOINT LeftElbow
       {
        OFFSET 0.000000 -29.696600 0.000000
        CHANNELS 3 Yrotation Xrotation Zrotation
        JOINT LeftWrist
        {
         OFFSET 0.000000 -24.004700 0.000000
         CHANNELS 3 Yrotation Xrotation Zrotation
         End Site
         {
          OFFSET 0.000000 -17.728500 0.000000
         }
        }
       }
      }
     }
    }
   }
  }
 }
 JOINT RightHip
 {
  OFFSET -7.771700 -0.012900 -0.001300
  CHANNELS 3 Yrotation Xrotation Zrotation
  JOINT RightKnee
  {
   OFFSET 0.000000 -40.869800 0.001200
   CHANNELS 3 Yrotation Xrotation Zrotation
   JOINT RightAnkle
   {
    OFFSET 0.000000 -39.717900 0.002100
    CHANNELS 3 Yrotation Xrotation Zrotation
    JOINT RightToe
    {
     OFFSET 0.000000 -4.965400 11.033500
     CHANNELS 3 Yrotation Xrotation Zrotation
     End Site
     {
      OFFSET 0.000000 -1.423100 5.872300
     }
    }
   }
  }
 }
 JOINT LeftHip
 {
  OFFSET 7.771700 -0.012900 -0.001300
  CHANNELS 3 Yrotation Xrotation Zrotation
  JOINT LeftKnee
  {
   OFFSET 0.000000 -40.869800 0.001200
   CHANNELS 3 Yrotation Xrotation Zrotation
   JOINT LeftAnkle
   {
    OFFSET 0.000000 -39.717900 0.002100
    CHANNELS 3 Yrotation Xrotation Zrotation
    JOINT LeftToe
    {
     OFFSET 0.000000 -4.965400 11.033500
     CHANNELS 3 Yrotation Xrotation Zrotation
     End Site
     {
      OFFSET 0.000000 -1.423100 5.872300
     }
    }
   }
  }
 }
}
MOTION
Frames: 16
Frame Time: 0.008333
0.000000 85.388000 0.000000 0.000000 -5.767877 0.000000 0.000000 11.653817 0.000000 0.000000 -5.885947 0.000000 0.000000 -0.000000 0.000000 0.000000 -0.000000 0.000000 0.000000 12.528835 0.000000 0.000000 0.711642 0.000000 0.000000 -0.000000 0.000000 0.000000 0.000000 -90.000000 0.000000 -2.309062 0.000000 0.000000 2.309062 0.000000 0.000000 -0.000000 0.000000 0.000000 -0.000000 90.000000 0.000000 -2.309062 0.000000 0.000000 2.309062 0.000000 0.000000 8.520406 0.000000 0.000000 1.905762 0.000000 -0.000000 -4.658285 0.000000 0.000000 -0.000000 0.000000 0.000000 8.520406 0.000000 0.000000 1.905762 0.000000 -0.000000 -4.658285 0.000000 0.000000 -0.000000 0.000000
-187.060271 58.104643 29.228430 170.475677 -48.835196 -3.295851 5.324790 21.756361 3.601115 2.765963 12.440569 1.860889 3.544938 15.601401 2.430100 2.769253 12.418402 1.862597 -0.805720 17.567799 -0.238570 -1.405889 -3.169481 -0.170396 0.989029 4.321341 0.691589 3.071752 -13.143691 -10.075662 -61.893450 -64.322518 104.774962 1.706631 15.376416 -21.513950 -10.101026 2.550381 -0.409489 5.377745 -12.103711 10.302336 71.995756 -59.422913 -116.873181 -4.898934 4.802165 -9.226741 3.562508 -23.808509 1.077478 -37.217911 73.002340 -38.194026 6.770704 -12.128414 9.098764 0.020767 -0.171565 0.013140 0.103561 -22.499182 13.458574 51.275458 79.923880 51.359137 3.752008 -16.305688 -15.524472 0.071337 0.136039 0.046841
-187.062061 58.105650 29.228657 170.478296 -48.841189 -3.299919 5.322046 21.741897 3.605702 2.762842 12.431719 1.861803 3.548595 15.589854 2.433812 2.761037 12.405933 1.864222 -0.826043 17.545754 -0.263852 -1.434951 -3.210495 -0.209930 0.988992 4.364788 0.696190 3.090131 -13.132075 -10.087565 -61.749433 -64.307923 104.668346 1.789192 15.501820 -21.409235 -10.073176 2.583541 -0.414463 5.366018 -12.094854 10.258947 71.621098 -59.509926 -116.504118 -4.904949 4.971179 -8.919447 3.566024 -23.800389 1.081607 -37.234471 72.997836 -38.209191 6.775077 -12.131175 9.096755 0.019210 -0.170409 0.017974 0.111761 -22.494083 13.462949 51.204683 79.930814 51.292398 3.751119 -16.303678 -15.519986 0.068975 0.134490 0.045817
-187.064120 58.106122 29.229488 170.492507 -48.841809 -3.311906 5.309914 21.725341 3.608551 2.758063 12.420159 1.860276 3.540370 15.543727 2.438187 2.757467 12.428065 1.861262 -0.838981 17.512696 -0.288429 -1.450666 -3.271990 -0.250684 0.997295 4.411440 0.698338 3.109081 -13.124065 -10.096145 -61.552956 -64.359680 104.539860 1.838504 15.603213 -21.336349 -10.046662 2.623911 -0.420670 5.359992 -12.093265 10.226059 71.262038 -59.587951 -116.145983 -4.956953 5.186628 -8.622795 3.562115 -23.796206 1.083416 -37.240632 72.994524 -38.212693 6.767669 -12.132718 9.096898 0.018485 -0.168184 0.018746 0.106652 -22.494374 13.468900 51.177243 79.931730 51.261773 3.749236 -16.302792 -15.517830 0.075915 0.133829 0.044752
-187.066338 58.106547 29.230380 170.500350 -48.842010 -3.317320 5.296399 21.688044 3.605566 2.755362 12.428745 1.860453 3.544762 15.562800 2.439136 2.742958 12.385619 1.859372 -0.845539 17.473006 -0.311290 -1.455303 -3.345815 -0.290285 1.001973 4.458181 0.701959 3.152491 -13.122268 -10.111496 -61.507407 -64.413033 104.496708 1.916933 15.771357 -21.230378 -10.006968 2.659954 -0.428995 5.337759 -12.081099 10.217226 70.952455 -59.661106 -115.828530 -5.033867 5.448316 -8.340939 3.559902 -23.793964 1.082883 -37.237890 72.993394 -38.210314 6.764889 -12.132384 9.094542 0.017188 -0.167827 0.020605 0.105530 -22.496333 13.473815 51.178998 79.930014 51.258864 3.738802 -16.299660 -15.513243 0.075575 0.131945 0.047599
-187.069127 58.106824 29.231215 170.510631 -48.841039 -3.319418 5.282227 21.668444 3.597190 2.750846 12.419466 1.859293 3.538405 15.548735 2.439596 2.745956 12.403280 1.858284 -0.854581 17.407110 -0.332296 -1.453018 -3.422774 -0.327196 0.994352 4.474170 0.711615 3.239891 -13.133828 -10.147587 -61.503572 -64.479433 104.446849 2.010065 15.953613 -21.121144 -9.967362 2.666945 -0.436486 5.316016 -12.089651 10.193909 70.613678 -59.763837 -115.479707 -5.123135 5.745442 -8.069474 3.557784 -23.793114 1.076799 -37.235459 72.992901 -38.208509 6.760115 -12.128709 9.091445 0.016587 -0.168165 0.020235 0.102844 -22.498973 13.472962 51.144592 79.933016 51.218233 3.732126 -16.293805 -15.506710 0.072630 0.128619 0.047739
-187.071044 58.107299 29.231945 170.516032 -48.841907 -3.320758 5.272606 21.650610 3.590084 2.748208 12.410862 1.858864 3.530028 15.535912 2.438858 2.750527 12.419299 1.858964 -0.857613 17.345916 -0.352315 -1.447974 -3.495069 -0.360698 0.998384 4.496974 0.717065 3.254909 -13.135281 -10.156648 -61.533786 -64.597247 104.477009 2.113185 16.145250 -21.006345 -9.947924 2.685334 -0.443445 5.313723 -12.117755 10.174868 70.291650 -59.879954 -115.140019 -5.224227 6.064710 -7.794247 3.557591 -23.791272 1.075210 -37.239763 72.991462 -38.212580 6.755753 -12.127122 9.091004 0.019977 -0.168084 0.020099 0.102326 -22.498939 13.477317 51.139347 79.930491 51.203117 3.721764 -16.290518 -15.495541 0.071014 0.126797 0.040956
-187.071137 58.108337 29.232409 170.521287 -48.847488 -3.330294 5.266257 21.637648 3.591747 2.746919 12.402488 1.858463 3.523410 15.505678 2.435937 2.744606 12.395716 1.856866 -0.848699 17.348860 -0.367081 -1.440728 -3.555466 -0.390100 1.012395 4.577361 0.725454 3.293467 -13.150086 -10.177368 -61.592556 -64.724268 104.499462 2.222625 16.337227 -20.885165 -9.923233 2.760377 -0.456601 5.289636 -12.146531 10.169956 70.009775 -60.012370 -114.807359 -5.334498 6.389495 -7.513360 3.558792 -23.783464 1.082674 -37.237319 72.988230 -38.207685 6.751407 -12.124599 9.095572 0.019826 -0.167958 0.016880 0.099507 -22.494091 13.490895 51.124103 79.934215 51.185087 3.713740 -16.289762 -15.494997 0.073605 0.124613 0.043549
-187.072079 58.109218 29.232550 170.514042 -48.853790 -3.323020 5.264699 21.625020 3.586234 2.748956 12.408358 1.859271 3.523253 15.500380 2.435765 2.741827 12.380310 1.854961 -0.849187 17.315393 -0.381465 -1.430839 -3.599384 -0.413449 1.008635 4.609591 0.737750 3.334282 -13.169322 -10.204075 -61.639103 -64.864693 104.511379 2.332740 16.521653 -20.759963 -9.891753 2.754861 -0.488552 5.234319 -12.148062 10.202239 69.737082 -60.163906 -114.448652 -5.457265 6.696115 -7.242255 3.570516 -23.776180 1.080175 -37.229866 72.987709 -38.198925 6.748515 -12.123877 9.101974 0.017084 -0.167441 0.012901 0.106744 -22.487964 13.493383 51.125768 79.933497 51.179430 3.712154 -16.286967 -15.488513 0.066874 0.122769 0.042635
-187.073667 58.109835 29.232486 170.512873 -48.859701 -3.314493 5.258005 21.611972 3.574765 2.750074 12.414679 1.860469 3.512455 15.452924 2.425871 2.749246 12.419333 1.862420 -0.847270 17.282562 -0.392808 -1.420760 -3.626575 -0.428645 1.005895 4.626310 0.746808 3.403057 -13.212165 -10.255236 -61.669540 -64.978468 104.478772 2.441003 16.696812 -20.633592 -9.883785 2.751350 -0.511015 5.175343 -12.188079 10.232774 69.439281 -60.331243 -114.002318 -5.598873 6.964645 -6.990133 3.579463 -23.768662 1.071953 -37.233764 72.987143 -38.201710 6.746746 -12.126850 9.106118 0.013336 -0.165281 0.010830 0.112940 -22.482466 13.489771 51.131771 79.932238 51.175594 3.709055 -16.284197 -15.479471 0.057841 0.121541 0.039390
-187.072974 58.110298 29.232850 170.509652 -48.865715 -3.316826 5.261689 21.598910 3.577779 2.743100 12.406036 1.858929 3.515611 15.441545 2.422664 2.746100 12.416062 1.863085 -0.838664 17.282729 -0.396133 -1.417406 -3.618615 -0.430255 1.010766 4.664899 0.758892 3.436065 -13.232992 -10.285129 -61.711138 -65.117909 104.489241 2.548454 16.862512 -20.507731 -9.882333 2.765044 -0.537167 5.166856 -12.171163 10.262079 69.215050 -60.549739 -113.656939 -5.752504 7.190137 -6.751410 3.585699 -23.762821 1.078042 -37.237342 72.987923 -38.202289 6.743934 -12.128644 9.108155 0.015291 -0.163586 0.009601 0.126267 -22.478020 13.505451 51.077386 79.939971 51.120838 3.708890 -16.283918 -15.476749 0.066062 0.121036 0.043192
-187.073195 58.110868 29.232640 170.514534 -48.874620 -3.318183 5.260348 21.590601 3.575428 2.741325 12.400126 1.857013 3.515044 15.437560 2.422493 2.744952 12.408948 1.862354 -0.832016 17.285612 -0.393943 -1.415451 -3.613870 -0.432448 1.009226 4.692665 0.776873 3.474005 -13.247796 -10.320908 -61.741809 -65.250942 104.491881 2.655977 17.017532 -20.386236 -9.894987 2.767673 -0.566081 5.143405 -12.171764 10.300516 68.979783 -60.796871 -113.260052 -5.905274 7.378968 -6.521700 3.593017 -23.756835 1.081284 -37.279377 72.989408 -38.241774 6.736188 -12.128655 9.110913 0.018101 -0.167357 0.011744 0.129385 -22.470045 13.507159 51.056102 79.943406 51.098569 3.705880 -16.281101 -15.472723 0.063843 0.119596 0.039074
-187.073009 58.110825 29.232869 170.515672 -48.880484 -3.318904 5.261024 21.578524 3.574774 2.741891 12.397317 1.856502 3.510398 15.431056 2.420546 2.747363 12.406004 1.861633 -0.825751 17.290682 -0.386244 -1.404203 -3.618710 -0.435474 1.012053 4.718838 0.785481 3.506419 -13.264002 -10.347835 -61.752749 -65.375715 104.477993 2.762292 17.161270 -20.279481 -9.917255 2.759653 -0.597773 5.113268 -12.162578 10.348643 68.778631 -61.077569 -112.864349 -6.047932 7.541515 -6.304849 3.596055 -23.753580 1.084935 -37.286648 72.990890 -38.249915 6.732392 -12.125138 9.113153 0.025108 -0.170635 0.012374 0.130632 -22.464462 13.508694 51.046145 79.944521 51.088368 3.707716 -16.279538 -15.471378 0.062382 0.119354 0.037588
-187.073119 58.110610 29.233018 170.516265 -48.886510 -3.317235 5.260286 21.575561 3.572063 2.742110 12.384058 1.854877 3.505172 15.427203 2.418553 2.739369 12.371059 1.851889 -0.805642 17.333241 -0.366863 -1.369876 -3.606620 -0.410891 1.026181 4.777721 0.799384 3.530835 -13.276445 -10.368202 -61.756058 -65.511759 104.462949 2.861604 17.302571 -20.198724 -9.935223 2.776255 -0.630276 5.056366 -12.146281 10.405596 68.623563 -61.385319 -112.464808 -6.175337 7.694444 -6.102865 3.600551 -23.750105 1.086473 -37.297516 72.992226 -38.260547 6.728413 -12.124702 9.112990 0.039151 -0.171515 0.015216 0.136138 -22.459390 13.509693 51.015708 79.949947 51.056336 3.710657 -16.277963 -15.464861 0.059398 0.119102 0.035298
-187.072573 58.111712 29.232034 170.516104 -48.903856 -3.318155 5.261521 21.583594 3.572737 2.738946 12.370882 1.851920 3.505118 15.426176 2.418739 2.738262 12.367640 1.851076 -0.792053 17.348466 -0.350349 -1.343859 -3.577755 -0.379304 1.033579 4.801559 0.802935 3.536866 -13.278791 -10.372951 -61.764052 -65.676104 104.455663 2.946457 17.458139 -20.152940 -9.964379 2.750274 -0.666072 5.001533 -12.105513 10.465235 68.553948 -61.728956 -112.135330 -6.273314 7.840740 -5.909283 3.603579 -23.733939 1.092343 -37.310024 72.991600 -38.272105 6.719991 -12.121495 9.114700 0.036594 -0.174864 0.014824 0.142804 -22.442051 13.512004 51.010437 79.952767 51.051339 3.715036 -16.277691 -15.456933 0.055751 0.118742 0.029189
-187.072982 58.110994 29.232366 170.512476 -48.907711 -3.313095 5.257944 21.558768 3.565732 2.741684 12.381592 1.852312 3.503951 15.428036 2.419990 2.739168 12.371330 1.851636 -0.785282 17.357075 -0.340990 -1.334523 -3.561734 -0.364361 1.038110 4.806699 0.799727 3.574816 -13.292967 -10.398169 -61.752896 -65.820737 104.384744 3.016455 17.636148 -20.158476 -9.997785 2.706632 -0.702418 4.942905 -12.058389 10.527731 68.538514 -62.111670 -111.849469 -6.330212 7.952504 -5.707061 3.607768 -23.731165 1.093110 -37.305060 72.991474 -38.270436 6.714549 -12.120771 9.118599 0.030768 -0.175570 0.013641 0.149189 -22.438667 13.509960 51.012521 79.950054 51.051597 3.715296 -16.275475 -15.449980 0.058669 0.120993 0.025483
